HIERARCHY
ROOT Hips
{
    OFFSET 0.000000 0.000000 0.000000
    CHANNELS 6 Xposition Yposition Zposition Zrotation Xrotation Yrotation
        JOINT Chest
        {
            OFFSET -0.000000 29.765863 -0.000000
            CHANNELS 3 Zrotation Xrotation Yrotation
            JOINT Neck
            {
                OFFSET -0.000000 22.048780 0.000000
                CHANNELS 3 Zrotation Xrotation Yrotation
                JOINT Head
                {
                    OFFSET -0.000000 10.266670 0.000000
                    CHANNELS 3 Zrotation Xrotation Yrotation
                    End Site
                    {
                        OFFSET -0.000000 15.866677 0.000000
                    }
                }
            }
            JOINT LeftCollar
            {
                OFFSET -0.000000 22.048780 0.000000
                CHANNELS 3 Zrotation Xrotation Yrotation
                JOINT LeftShoulder
                {
                    OFFSET 18.666672 -0.000000 0.000000
                    CHANNELS 3 Zrotation Xrotation Yrotation
                    JOINT LeftElbow
                    {
                        OFFSET 23.656216 0.000000 0.000000
                        CHANNELS 3 Zrotation Xrotation Yrotation
                        JOINT LeftWrist
                        {
                            OFFSET 24.590921 0.000000 0.000000
                            CHANNELS 3 Zrotation Xrotation Yrotation
                            End Site
                            {
                                OFFSET 0.000000 -14.000008 0.000000
                            }
                        }
                    }
                }
            }
            JOINT RightCollar
            {
                OFFSET -0.000000 22.048780 0.000000
                CHANNELS 3 Zrotation Xrotation Yrotation
                JOINT RightShoulder
                {
                    OFFSET -18.666672 0.000000 0.000000
                    CHANNELS 3 Zrotation Xrotation Yrotation
                    JOINT RightElbow
                    {
                        OFFSET -23.656216 0.000000 0.000000
                        CHANNELS 3 Zrotation Xrotation Yrotation
                        JOINT RightWrist
                        {
                            OFFSET -24.590921 0.000000 0.000000
                            CHANNELS 3 Zrotation Xrotation Yrotation
                            End Site
                            {
                                OFFSET -0.000000 -14.000008 0.000000
                            }
                        }
                    }
                }
            }
        }
    JOINT LeftHip
    {
        OFFSET 11.200002 0.000000 0.000000
        CHANNELS 3 Zrotation Xrotation Yrotation
        JOINT LeftKnee
        {
            OFFSET -0.000000 -37.692356 0.000000
            CHANNELS 3 Zrotation Xrotation Yrotation
            JOINT LeftAnkle
            {
                OFFSET -0.000000 -39.524944 0.000000
                CHANNELS 3 Zrotation Xrotation Yrotation
                End Site
                {
                    OFFSET -0.000000 -4.666668 15.866677
                }
            }
        }
    }
    JOINT RightHip
    {
        OFFSET -11.200002 0.000000 0.000000
        CHANNELS 3 Zrotation Xrotation Yrotation
        JOINT RightKnee
        {
            OFFSET -0.000000 -37.692356 0.000000
            CHANNELS 3 Zrotation Xrotation Yrotation
            JOINT RightAnkle
            {
                OFFSET -0.000000 -39.524944 0.000000
                CHANNELS 3 Zrotation Xrotation Yrotation
                End Site
                {
                    OFFSET -0.000000 -4.666668 15.866677
                }
            }
        }
    }
}
MOTION
Frames:    8
Frame Time:    0.010000
98.222183    83.609756    -98.154694    2.877541    1.651295    -82.447281    -15.610612    26.334234    11.655650    -2.346531    -4.075091    20.223082    5.952698    -31.532270    21.984779    -8.093618    0.236641    -3.269273    -28.657648    6.378158    -47.005730    32.736519    -5.659643    -18.801792    96.987022    6.991942    136.799759    15.449797    0.253706    1.773826    2.487521    49.577457    59.503101    -15.478828    -10.113771    65.186638    -90.090477    -17.864098    -41.032616    4.722510    -33.854382    -1.586325    5.003488    20.763655    -1.428820    11.465379    -19.100760    11.067421    11.495423    -15.157569    1.334182    1.285641    23.888241    1.093899    -6.550905    -6.916206    -12.374110    
98.352432    83.612015    -98.199677    2.925386    1.690645    -82.579170    -15.881392    25.880787    10.710616    -2.760836    -4.917676    20.531422    6.993862    -30.782333    22.572063    -8.772116    0.195516    -1.838942    -27.641815    6.655472    -47.615696    32.510410    -5.486025    -18.391438    97.094315    7.084781    136.940918    15.752210    0.291932    2.102255    0.596697    50.135174    61.253269    -15.652348    -10.174270    65.250465    -90.536980    -18.049973    -41.337009    4.812645    -33.930546    -1.572797    5.005240    20.790640    -1.548966    14.310448    -18.764956    11.543459    11.601125    -15.205936    1.441493    1.228297    23.693726    1.065878    -8.130492    -6.565420    -12.088334    
98.503105    83.621513    -98.216774    2.894366    1.645093    -82.538109    -15.512060    26.861874    10.371800    -4.417548    -6.594566    20.392982    8.400180    -30.605280    22.949316    -8.749766    0.135510    -1.417051    -27.301222    6.327590    -48.417789    32.645031    -5.382669    -17.814943    96.876991    6.983365    137.470840    14.460279    0.277162    2.246940    0.162634    49.363735    62.521671    -15.851859    -10.329505    65.423012    -90.369011    -18.364016    -41.682129    4.619038    -33.941490    -1.992483    5.057185    20.831177    -1.535496    14.494678    -19.137560    11.838248    11.530092    -15.190166    1.357527    1.239208    23.527197    1.177708    -8.097077    -6.428408    -12.154750    
98.659348    83.630325    -98.253662    3.065516    1.684187    -82.653816    -16.002924    26.528397    10.054269    -4.411741    -5.971132    20.529499    8.710350    -31.227005    23.196005    -8.463793    0.093814    -1.555884    -27.361172    5.875589    -48.285542    32.222610    -5.179522    -17.593727    96.310112    7.032704    136.614395    15.223369    0.372088    3.082732    2.746914    48.758137    59.732677    -14.724772    -9.155513    66.497726    -91.102715    -18.004477    -41.450432    4.622520    -34.149990    -2.075292    5.115396    20.843426    -1.401701    13.894070    -19.937922    11.824993    11.577645    -15.423615    1.495709    1.266376    23.479383    1.629609    -7.973956    -6.295115    -12.525965    
98.792618    83.618805    -98.298416    3.248927    1.765465    -82.818672    -15.758094    27.014185    10.226280    -4.767220    -7.388805    20.512501    8.907415    -30.725239    23.271839    -8.137375    0.105507    -1.285411    -27.992832    5.641064    -48.873505    32.532490    -5.186320    -17.371061    96.104706    6.923022    135.962646    14.406617    0.357538    2.883862    1.512811    48.272438    61.599915    -14.759700    -9.574549    66.464264    -90.474670    -18.184942    -41.303635    4.741838    -34.271172    -2.600354    4.948892    20.736643    -0.894948    15.193782    -20.075689    12.180943    11.728927    -15.649967    1.674781    1.222596    23.395876    1.979783    -8.198526    -6.150711    -12.838633    
98.913696    83.611740    -98.340591    3.357407    1.825360    -82.994934    -15.819682    27.184561    10.265477    -4.642040    -7.697056    20.526291    8.782024    -30.691242    23.253254    -8.147573    0.077768    -1.472470    -27.544653    5.428312    -49.020752    32.577801    -5.117481    -17.153465    95.440018    7.646304    136.200455    14.277112    0.370840    2.866765    1.204008    48.045788    62.043159    -14.773801    -9.717840    66.662148    -89.984520    -18.613676    -41.183258    4.850394    -34.362312    -2.512280    4.900333    20.662630    -0.584674    15.536437    -20.337757    12.403530    11.886874    -15.842203    1.752917    1.085411    23.408773    2.315962    -7.833196    -6.090338    -13.003791    
99.020889    83.595917    -98.420868    3.492242    1.993085    -83.289032    -15.839705    27.315735    10.397911    -4.853385    -8.024571    20.526751    9.112974    -30.827381    23.384150    -8.153819    0.097721    -1.532809    -27.261106    4.911827    -49.151405    32.094604    -4.919591    -16.858452    95.828140    6.648162    135.696289    14.142965    0.383844    2.940719    0.819248    47.787853    62.638813    -14.840218    -9.819818    66.743011    -89.439171    -18.902153    -41.375690    5.244932    -34.514988    -2.045734    4.922451    20.685318    -0.994835    15.340575    -20.974297    12.537563    12.257380    -16.008677    2.507016    1.105223    23.330519    1.857479    -8.123713    -5.943030    -12.923005    
99.172775    83.593040    -98.426147    3.666719    1.973579    -83.520393    -16.058849    27.366020    10.564639    -4.792113    -8.357113    20.507668    9.182500    -30.565836    23.372545    -8.213557    0.119164    -1.637626    -26.673353    4.788946    -49.413155    32.062332    -4.874061    -16.819717    95.393272    8.261633    136.288330    14.106957    0.347686    2.939319    1.518938    47.555004    62.202641    -14.740801    -9.749479    67.097572    -88.972260    -18.803558    -41.240795    5.545383    -34.723686    -2.498214    4.310239    20.910179    -0.917217    15.715652    -21.226288    13.211278    12.305161    -16.320854    2.778979    1.068896    23.404608    1.625263    -8.269099    -5.839541    -12.650331    
